<svg width="50" height="49" viewBox="0 0 50 49" fill="none" xmlns="http://www.w3.org/2000/svg">
<path d="M25 24.5C22.7083 24.5 20.7465 23.7003 19.1146 22.101C17.4826 20.5017 16.6667 18.5791 16.6667 16.3333C16.6667 14.0875 17.4826 12.1649 19.1146 10.5656C20.7465 8.96628 22.7083 8.16663 25 8.16663C27.2917 8.16663 29.2535 8.96628 30.8854 10.5656C32.5174 12.1649 33.3333 14.0875 33.3333 16.3333C33.3333 18.5791 32.5174 20.5017 30.8854 22.101C29.2535 23.7003 27.2917 24.5 25 24.5ZM8.33334 40.8333V35.1166C8.33334 33.9597 8.63716 32.8963 9.2448 31.9265C9.85244 30.9567 10.6597 30.2166 11.6667 29.7062C13.8195 28.6513 16.007 27.8602 18.2292 27.3328C20.4514 26.8053 22.7083 26.5416 25 26.5416C27.2917 26.5416 29.5486 26.8053 31.7708 27.3328C33.9931 27.8602 36.1806 28.6513 38.3333 29.7062C39.3403 30.2166 40.1476 30.9567 40.7552 31.9265C41.3629 32.8963 41.6667 33.9597 41.6667 35.1166V40.8333H8.33334ZM12.5 36.75H37.5V35.1166C37.5 34.7423 37.4045 34.402 37.2136 34.0958C37.0226 33.7895 36.7708 33.5513 36.4583 33.3812C34.5833 32.4625 32.691 31.7734 30.7813 31.314C28.8715 30.8546 26.9445 30.625 25 30.625C23.0556 30.625 21.1285 30.8546 19.2188 31.314C17.309 31.7734 15.4167 32.4625 13.5417 33.3812C13.2292 33.5513 12.9774 33.7895 12.7865 34.0958C12.5955 34.402 12.5 34.7423 12.5 35.1166V36.75ZM25 20.4166C26.1458 20.4166 27.1267 20.0168 27.9427 19.2171C28.7587 18.4175 29.1667 17.4562 29.1667 16.3333C29.1667 15.2104 28.7587 14.2491 27.9427 13.4494C27.1267 12.6498 26.1458 12.25 25 12.25C23.8542 12.25 22.8733 12.6498 22.0573 13.4494C21.2413 14.2491 20.8333 15.2104 20.8333 16.3333C20.8333 17.4562 21.2413 18.4175 22.0573 19.2171C22.8733 20.0168 23.8542 20.4166 25 20.4166Z" fill="#5D5B5B"/>
</svg>
